<?xml version="1.0" encoding="UTF-8"?>
<svg id="Layer_1" data-name="Layer 1" xmlns="http://www.w3.org/2000/svg" viewBox="0 0 119.88 18.81">
  <defs>
    <style>
      .cls-1 {
        fill: #083a53;
      }

      .cls-2 {
        fill: #00d277;
        fill-rule: evenodd;
      }
    </style>
  </defs>
  <g>
    <path class="cls-1" d="M30.26,3.9c.35,0,.63.12.86.35s.35.52.35.88v8.46c0,.35-.12.64-.35.87-.23.24-.51.35-.86.35s-.63-.12-.86-.35c-.23-.24-.35-.52-.35-.87v-.98l.44.18c0,.18-.09.38-.28.63s-.44.49-.76.73c-.32.24-.7.44-1.13.61s-.91.25-1.41.25c-.92,0-1.75-.24-2.5-.71s-1.34-1.12-1.77-1.96c-.43-.83-.65-1.79-.65-2.87s.22-2.06.65-2.89c.43-.84,1.02-1.49,1.75-1.96s1.55-.71,2.44-.71c.57,0,1.1.09,1.58.26.48.18.9.39,1.25.66s.63.53.82.81c.2.28.29.5.29.69l-.72.26v-1.46c0-.35.11-.64.35-.87.23-.24.51-.35.86-.35h0ZM26.22,12.81c.59,0,1.1-.15,1.54-.44.44-.3.78-.69,1.03-1.2s.37-1.07.37-1.71-.12-1.21-.37-1.73c-.25-.5-.59-.91-1.03-1.2-.44-.3-.96-.44-1.54-.44s-1.08.15-1.52.44c-.44.3-.78.69-1.04,1.2-.25.5-.37,1.08-.37,1.73s.12,1.19.37,1.71.59.91,1.04,1.2c.44.3.95.44,1.52.44Z"/>
    <path class="cls-1" d="M38.5,3.9c.56,0,1.07.09,1.54.26.46.18.87.39,1.21.66s.61.53.8.81c.2.28.29.5.29.69l-.52.26v-1.46c0-.35.11-.64.35-.87.23-.24.51-.35.86-.35s.63.12.86.35.35.52.35.88v8.9c0,1.16-.25,2.09-.75,2.79s-1.15,1.2-1.97,1.52-1.69.47-2.62.47c-.27,0-.61-.03-1.04-.1-.42-.07-.84-.15-1.22-.24s-.68-.18-.88-.26c-.4-.18-.68-.39-.83-.65-.16-.26-.19-.53-.09-.83.12-.38.32-.65.58-.79s.54-.16.84-.05c.14.04.35.12.66.24.31.12.64.23,1.01.33s.69.15.97.15c1,0,1.74-.2,2.22-.6s.72-.96.72-1.66v-1.74l.24.18c0,.18-.09.38-.27.63s-.42.49-.74.73c-.32.24-.68.44-1.11.61s-.88.25-1.36.25c-.95,0-1.8-.24-2.56-.71-.76-.47-1.36-1.12-1.8-1.96-.44-.83-.66-1.79-.66-2.87s.22-2.06.66-2.89c.44-.84,1.04-1.49,1.78-1.96s1.58-.71,2.5-.71h.02-.04ZM38.88,6.1c-.6,0-1.12.15-1.58.44s-.81.69-1.06,1.2c-.25.51-.38,1.08-.38,1.73s.13,1.19.38,1.71c.26.5.61.91,1.06,1.2.45.3.98.44,1.58.44s1.14-.15,1.6-.44.81-.69,1.06-1.2c.26-.5.38-1.07.38-1.71s-.13-1.21-.38-1.73c-.26-.5-.61-.91-1.06-1.2-.45-.3-.99-.44-1.6-.44Z"/>
    <path class="cls-1" d="M51.46,15c-1.13,0-2.12-.24-2.95-.71-.84-.47-1.48-1.11-1.92-1.93s-.67-1.74-.67-2.76c0-1.2.25-2.23.73-3.08s1.12-1.5,1.91-1.95,1.62-.68,2.5-.68c.68,0,1.32.14,1.93.42s1.14.66,1.61,1.15c.46.48.84,1.05,1.11,1.69.28.64.41,1.32.41,2.04,0,.32-.14.58-.38.78s-.52.3-.84.3h-7.64l-.6-2h7.34l-.44.4v-.54c-.03-.38-.17-.73-.41-1.04-.25-.31-.55-.55-.92-.73-.36-.18-.76-.27-1.17-.27s-.77.05-1.12.16c-.35.11-.65.29-.9.54-.26.26-.45.59-.6,1.03s-.22.97-.22,1.62c0,.72.15,1.33.45,1.83s.69.88,1.16,1.14.98.39,1.51.39c.49,0,.89-.04,1.18-.12s.53-.18.71-.29.35-.21.49-.29c.24-.12.46-.18.68-.18.3,0,.53.1.73.3s.29.43.29.7c0,.36-.19.69-.56.98-.35.3-.84.55-1.46.77-.63.22-1.27.33-1.94.33h0Z"/>
    <path class="cls-1" d="M63.94,3.9c.99,0,1.74.21,2.25.62s.87.97,1.06,1.65c.2.69.29,1.45.29,2.29v5.12c0,.35-.12.64-.34.87-.23.24-.51.35-.86.35s-.63-.12-.86-.35-.35-.52-.35-.87v-5.12c0-.44-.06-.84-.17-1.19s-.32-.64-.61-.85c-.3-.22-.71-.32-1.26-.32s-.99.11-1.35.32c-.36.22-.65.49-.84.85-.2.35-.29.75-.29,1.19v5.12c0,.35-.12.64-.34.87-.23.24-.51.35-.86.35s-.63-.12-.86-.35-.34-.52-.34-.87V5.32c0-.35.11-.64.34-.87.23-.24.51-.35.86-.35s.63.12.86.35c.23.24.34.52.34.87v.86l-.3-.06c.12-.23.3-.47.52-.73.23-.26.49-.5.8-.73.31-.23.65-.41,1.04-.55s.81-.21,1.26-.21h0Z"/>
    <path class="cls-1" d="M78.91,0c.35,0,.63.12.86.35.23.23.34.52.34.88v12.36c0,.35-.12.64-.34.87-.23.24-.51.35-.86.35s-.63-.12-.86-.35-.34-.52-.34-.87v-.98l.44.18c0,.18-.09.38-.28.63s-.44.49-.76.73c-.33.24-.7.44-1.13.61s-.91.25-1.41.25c-.92,0-1.75-.24-2.5-.71s-1.34-1.12-1.77-1.96c-.43-.83-.65-1.79-.65-2.87s.22-2.06.65-2.89c.43-.84,1.02-1.49,1.75-1.96s1.55-.71,2.44-.71c.57,0,1.1.09,1.58.26s.9.39,1.25.66.63.53.82.81c.2.28.29.5.29.69l-.72.26V1.22c0-.35.12-.64.34-.87.23-.23.51-.35.86-.35ZM74.87,12.81c.59,0,1.1-.15,1.54-.44.44-.3.78-.69,1.04-1.2.25-.5.37-1.07.37-1.71s-.12-1.21-.37-1.73c-.25-.5-.59-.91-1.04-1.2-.44-.3-.96-.44-1.54-.44s-1.08.15-1.52.44c-.44.3-.78.69-1.03,1.2-.25.5-.37,1.08-.37,1.73s.12,1.19.37,1.71c.25.5.59.91,1.03,1.2s.95.44,1.52.44Z"/>
    <path class="cls-1" d="M91.48,3.9c.35,0,.63.12.86.35s.34.52.34.88v8.46c0,.35-.12.64-.34.87-.23.24-.51.35-.86.35s-.63-.12-.86-.35-.34-.52-.34-.87v-.98l.44.18c0,.18-.09.38-.28.63s-.44.49-.76.73c-.33.24-.7.44-1.13.61s-.91.25-1.41.25c-.92,0-1.75-.24-2.5-.71s-1.34-1.12-1.77-1.96c-.43-.83-.65-1.79-.65-2.87s.22-2.06.65-2.89c.43-.84,1.02-1.49,1.75-1.96s1.55-.71,2.44-.71c.57,0,1.1.09,1.58.26s.9.39,1.25.66.63.53.82.81c.2.28.29.5.29.69l-.72.26v-1.46c0-.35.12-.64.34-.87.23-.24.51-.35.86-.35h0ZM87.44,12.81c.59,0,1.1-.15,1.54-.44.44-.3.78-.69,1.04-1.2.25-.5.37-1.07.37-1.71s-.12-1.21-.37-1.73c-.25-.5-.59-.91-1.04-1.2-.44-.3-.96-.44-1.54-.44s-1.08.15-1.52.44c-.44.3-.78.69-1.03,1.2-.25.5-.37,1.08-.37,1.73s.12,1.19.37,1.71c.25.5.59.91,1.03,1.2s.95.44,1.52.44Z"/>
    <path class="cls-1" d="M96.88,14.21c0,.16-.06.3-.18.42s-.26.18-.42.18c-.18,0-.32-.06-.43-.18s-.17-.26-.17-.42V.6c0-.16.06-.3.18-.42C95.98.06,96.12,0,96.28,0c.18,0,.32.06.43.18.11.12.17.26.17.42v13.6h0Z"/>
    <path class="cls-1" d="M100.73,3.07c-.28,0-.49-.06-.63-.19s-.21-.31-.21-.55v-.2c0-.24.08-.42.23-.55.16-.13.36-.19.63-.19s.45.06.59.19.21.31.21.55v.2c0,.24-.07.42-.21.55s-.35.19-.61.19ZM101.32,14.21c0,.16-.06.3-.18.42s-.26.18-.42.18c-.19,0-.34-.06-.44-.18s-.16-.26-.16-.42V5.01c0-.16.06-.3.17-.42s.26-.18.43-.18.32.06.43.18.17.26.17.42v9.21h0Z"/>
    <path class="cls-1" d="M103.78,4.62h4.66c.16,0,.3.06.4.17s.16.25.16.41-.05.3-.16.4-.24.16-.4.16h-4.66c-.16,0-.3-.06-.41-.17-.12-.11-.17-.25-.17-.41s.06-.3.17-.4c.11-.11.25-.16.41-.16ZM105.84,1.8c.18,0,.32.06.43.18s.17.26.17.42v10.05c0,.37.05.65.15.84s.23.31.39.37.32.09.48.09c.11,0,.21-.02.29-.05.09-.03.19-.05.29-.05.12,0,.23.05.32.14s.13.22.13.36c0,.19-.11.35-.33.47s-.46.19-.76.19c-.12,0-.3,0-.54-.03-.24-.02-.48-.09-.74-.22s-.46-.35-.64-.67-.26-.78-.26-1.38V2.41c0-.16.06-.3.18-.42s.27-.18.44-.18h0Z"/>
    <path class="cls-1" d="M115.75,15c-1.03,0-1.93-.22-2.72-.66s-1.4-1.05-1.84-1.84c-.44-.79-.66-1.71-.66-2.76,0-1.13.23-2.1.67-2.9s1.03-1.42,1.74-1.85,1.47-.65,2.27-.65c.59,0,1.15.1,1.72.31.55.21,1.04.51,1.48.92s.78.91,1.04,1.49c.26.59.4,1.27.43,2.04,0,.16-.08.3-.2.41-.12.11-.26.17-.42.17h-8.02l-.24-1.08h7.89l-.26.24v-.4c-.07-.63-.28-1.15-.62-1.59s-.76-.77-1.25-1-1-.35-1.53-.35c-.4,0-.81.08-1.23.24-.42.16-.8.41-1.14.75-.35.34-.62.77-.83,1.3-.22.52-.32,1.15-.32,1.87,0,.79.16,1.5.48,2.14.33.64.78,1.14,1.39,1.52.61.37,1.33.56,2.17.56.46,0,.89-.07,1.25-.2s.69-.31.99-.53c.29-.22.52-.45.71-.69.15-.12.29-.18.42-.18.15,0,.27.05.37.16s.15.23.15.36c0,.16-.07.3-.2.42-.4.48-.92.9-1.56,1.25s-1.34.53-2.1.53h-.03Z"/>
  </g>
  <polygon class="cls-2" points="10.21 18.69 16.8 3.72 18 12.94 10.21 18.69"/>
  <polygon class="cls-2" points="7.5 .21 0 9.03 16.8 3.72 7.5 .21"/>
  <polygon class="cls-2" points="10.21 18.69 8.43 10.96 0 9.03 3.68 14.49 10.21 18.69"/>
  <polygon class="cls-2" points="10.7 13.51 13.84 6.38 6.25 8.78 9.8 9.59 10.7 13.51"/>
</svg>