<?xml version="1.0" encoding="UTF-8"?>
<svg id="Layer_1" data-name="Layer 1" xmlns="http://www.w3.org/2000/svg" viewBox="0 0 120 120">
  <defs>
    <style>
      .cls-1 {
        fill: #fff;
        fill-rule: evenodd;
      }
    </style>
  </defs>
  <rect width="120" height="120" rx="11" ry="11"/>
  <path class="cls-1" d="M41.67,53.33v21.67h-5v-21.67h5ZM45,51.67c0-.92-.75-1.67-1.67-1.67h-8.33c-.92,0-1.67.75-1.67,1.67v25c0,.92.75,1.67,1.67,1.67h8.33c.92,0,1.67-.75,1.67-1.67v-25ZM62.5,53.33v21.67h-5v-21.67h5ZM65.83,51.67c0-.92-.75-1.67-1.67-1.67h-8.33c-.92,0-1.67.75-1.67,1.67v25c0,.92.75,1.67,1.67,1.67h8.33c.92,0,1.67-.75,1.67-1.67v-25ZM83.33,53.33v21.67h-5v-21.67h5ZM86.67,51.67c0-.92-.75-1.67-1.67-1.67h-8.33c-.92,0-1.67.75-1.67,1.67v25c0,.92.75,1.67,1.67,1.67h8.33c.92,0,1.67-.75,1.67-1.67v-25ZM28.33,41.67v-5.64l31.67-15.83,31.67,15.83v5.64H28.33ZM25,43.33c0,.92.75,1.67,1.67,1.67h66.67c.92,0,1.67-.75,1.67-1.67v-8.33c0-.63-.36-1.21-.92-1.49l-33.33-16.67c-.47-.23-1.02-.23-1.49,0l-33.33,16.67c-.56.28-.92.86-.92,1.49v8.33ZM91.67,86.67v5H28.33v-5h63.33ZM95,85c0-.92-.75-1.67-1.67-1.67H26.67c-.92,0-1.67.75-1.67,1.67v8.33c0,.92.75,1.67,1.67,1.67h66.67c.92,0,1.67-.75,1.67-1.67v-8.33Z"/>
</svg>