<?xml version="1.0" encoding="UTF-8"?>
<svg id="Layer_1" data-name="Layer 1" xmlns="http://www.w3.org/2000/svg" viewBox="0 0 120 82.8">
  <defs>
    <style>
      .cls-1 {
        fill: #fff;
      }

      .cls-2 {
        fill: #0a0080;
      }

      .cls-3 {
        fill: #2abcff;
      }
    </style>
  </defs>
  <path class="cls-2" d="M120,39.1C120,17.54,93.05,0,60,0S0,17.54,0,39.1v2.23c0,22.89,23.52,41.47,60,41.47s60-18.58,60-41.47v-2.23Z"/>
  <path class="cls-3" d="M117.62,39.1c0,20.37-25.76,36.87-57.62,36.87S2.38,59.46,2.38,39.1c0-20.37,25.76-36.87,57.62-36.87,31.86.15,57.62,16.5,57.62,36.87Z"/>
  <path class="cls-1" d="M40.79,27.5s-.6.59-.3,1.19c.89,1.19,3.72,1.78,6.55,1.19,1.64-.45,3.87-2.08,5.96-3.72,2.23-1.78,4.47-3.57,6.85-4.31,2.38-.74,3.87-.45,4.91-.15,1.19.3,2.38,1.04,4.47,2.68,4.02,2.97,19.8,16.8,22.48,19.18,2.23-1.04,12.06-5.2,25.31-8.18-.89-7.14-5.21-13.68-11.76-19.03-9.08,3.86-20.25,5.8-31.27.45,0,0-5.96-2.82-11.76-2.68-8.64.15-12.36,4.01-16.38,7.88,0,0-5.06,5.5-5.06,5.5Z"/>
  <path class="cls-1" d="M91.27,44.89c-.15-.15-18.61-16.35-22.78-19.47-2.38-1.78-3.72-2.23-5.21-2.53-.74-.15-1.79,0-2.53.3-1.94.6-4.47,2.23-6.7,4.01-2.38,1.93-4.62,3.57-6.55,4.01-2.53.74-5.81,0-7.3-.89-.6-.45-1.04-.89-1.19-1.34-.6-1.19.45-2.23.6-2.38l5.06-5.5,1.79-1.78c-1.64.15-3.13.59-4.62,1.04-1.79.45-3.57,1.04-5.36,1.04-.74,0-4.76-.6-5.51-.89-4.62-1.19-8.64-2.53-14.74-5.35-7.3,5.35-12.06,12.04-13.4,19.47,1.04.3,2.68.74,3.42.89,16.38,3.57,21.44,7.43,22.48,8.18,1.04-1.04,2.38-1.78,4.02-1.78,1.79,0,3.42.89,4.47,2.38.89-.74,2.23-1.34,3.87-1.34.74,0,1.49.15,2.38.45,1.46.48,2.65,1.56,3.28,2.97.6-.3,1.34-.45,2.23-.45s1.79.15,2.68.59c2.98,1.34,3.42,4.31,3.28,6.54h.6c3.57,0,6.55,2.97,6.55,6.54,0,1.04-.3,2.08-.74,3.12,1.04.59,3.42,1.78,5.66,1.49,1.79-.15,2.38-.74,2.68-1.19.15-.3.3-.45.15-.74l-4.62-5.2s-.74-.74-.45-1.04c.3-.3.74.15,1.04.45,2.38,1.93,5.21,4.91,5.21,4.91,0,0,.3.45,1.34.59.89.15,2.53,0,3.72-.89.3-.3.6-.59.74-.89,1.19-1.49-.15-2.97-.15-2.97l-5.36-6.1s-.74-.74-.45-1.04c.3-.3.74.15,1.04.45,2.18,1.98,4.31,4.02,6.4,6.1.45.3,2.53,1.64,5.21-.15,1.64-1.04,1.94-2.38,1.94-3.42-.15-1.34-1.19-2.23-1.19-2.23l-7.44-7.43s-.74-.6-.45-1.04c.3-.3.74.15,1.04.45,2.38,1.93,8.78,7.73,8.78,7.73.15,0,2.23,1.64,5.06-.15,1.04-.59,1.64-1.49,1.64-2.68-.3-1.64-1.64-2.82-1.64-2.82h0Z"/>
  <path class="cls-1" d="M55.53,54.26c-1.19,0-2.38.6-2.53.6s0-.45.15-.74c.15-.3,1.64-4.76-2.08-6.39-2.83-1.19-4.47.15-5.06.74-.15.15-.3.15-.3,0,0-.74-.45-2.97-2.83-3.72-3.42-1.04-5.66,1.34-6.25,2.23-.3-1.93-1.94-3.57-4.02-3.57-2.21-.01-4.01,1.77-4.02,3.98,0,.01,0,.02,0,.03,0,2.21,1.78,4.01,3.99,4.01.01,0,.02,0,.03,0,1.04,0,2.08-.45,2.83-1.19v.15c-.15,1.04-.45,4.61,3.28,6.1,1.49.59,2.83.15,3.87-.6.3-.3.3-.15.3.15-.15.89,0,2.97,2.83,4.01,2.08.89,3.42,0,4.17-.74.3-.3.45-.3.45.3.15,2.68,2.38,4.76,5.06,4.76,2.83,0,5.06-2.23,5.06-5.05.15-2.68-2.08-4.91-4.91-5.05Z"/>
  <path class="cls-2" d="M92.01,42.96c-5.66-4.91-18.91-16.35-22.33-19.03-2.08-1.49-3.42-2.38-4.62-2.68-.6-.15-1.34-.3-2.23-.3s-1.94.15-2.83.45c-2.23.74-4.62,2.53-6.85,4.31l-.15.15c-2.08,1.64-4.17,3.27-5.81,3.72-.74.15-1.49.3-2.08.3-1.79,0-3.42-.59-4.02-1.34-.15-.15,0-.3.15-.6l4.91-5.65c3.87-3.87,7.59-7.58,16.08-7.73h.45c5.36,0,10.57,2.38,11.17,2.68,5.06,2.38,10.12,3.57,15.33,3.57s10.87-1.34,16.82-4.01c-.6-.59-1.34-1.04-2.08-1.64-5.06,2.23-9.98,3.27-14.74,3.27s-9.68-1.19-14.29-3.42c-.3-.15-6.1-2.82-12.21-2.82h-.45c-7.15.15-11.17,2.68-13.85,4.91-2.68,0-4.91.74-7,1.34-1.79.45-3.42.89-4.91.89h-1.79c-1.79,0-10.57-2.23-17.57-4.91-.74.45-1.34,1.04-2.08,1.64,7.3,2.97,16.23,5.35,19.06,5.5.74,0,1.64.15,2.38.15,1.79,0,3.72-.45,5.51-1.04,1.04-.3,2.23-.6,3.42-.89l-1.04,1.04-5.06,5.5c-.45.45-1.34,1.49-.74,2.82.3.59.74,1.04,1.34,1.49,1.19.74,3.42,1.34,5.36,1.34.74,0,1.49,0,2.08-.3,2.08-.45,4.32-2.23,6.7-4.16,1.94-1.49,4.62-3.42,6.55-4.01.6-.15,1.34-.3,1.79-.3h.45c1.34.15,2.68.6,5.06,2.38,4.17,3.12,22.63,19.33,22.78,19.47,0,0,1.19,1.04,1.04,2.68,0,.89-.6,1.78-1.49,2.38-.74.45-1.64.74-2.38.74-1.19,0-2.08-.6-2.08-.6,0,0-6.4-5.8-8.78-7.73-.3-.3-.74-.6-1.04-.6-.15,0-.3.15-.45.3-.3.45,0,1.04.6,1.49l7.44,7.43s.89.89,1.04,1.93c0,1.19-.6,2.23-1.79,3.12-.89.59-1.79.89-2.68.89-1.19,0-1.94-.45-2.08-.59l-1.04-1.04c-1.94-1.93-3.87-3.86-5.36-5.05-.3-.3-.74-.59-1.04-.59-.15,0-.3,0-.45.15s-.3.59.15,1.04c.08.16.18.31.3.45l5.36,6.09s1.04,1.34.15,2.53l-.15.3-.45.45c-.89.74-2.08.89-2.68.89h-.74c-.6-.15-.89-.3-1.04-.45-.3-.3-2.98-3.12-5.21-4.91-.3-.3-.6-.59-1.04-.59-.15,0-.3,0-.45.15-.45.45.3,1.19.45,1.49l4.62,5.05s0,.15-.15.3c-.15.3-.74.74-2.38,1.04h-.6c-1.79,0-3.57-.89-4.47-1.34.45-.89.6-1.93.6-2.97,0-3.72-3.13-6.84-6.85-6.84h-.3c.15-1.78-.15-5.05-3.42-6.39-.89-.45-1.94-.59-2.83-.59-.74,0-1.49.15-2.08.45-.74-1.34-1.79-2.38-3.42-2.82-.89-.3-1.64-.45-2.53-.45-1.34,0-2.68.45-3.87,1.19-1.04-1.34-2.83-2.23-4.47-2.23-1.49,0-2.98.59-4.17,1.64-1.49-1.04-7.15-4.76-22.33-8.18-.74-.15-2.38-.6-3.42-.89-.15.89-.3,1.64-.45,2.53,0,0,2.83.74,3.42.74,15.48,3.42,20.69,6.99,21.59,7.73-.29.71-.44,1.46-.45,2.23,0,3.27,2.68,5.8,5.81,5.8.3,0,.74,0,1.04-.15.45,2.38,2.08,4.16,4.32,5.05.74.3,1.34.45,2.08.45.45,0,.89,0,1.34-.15.45,1.04,1.49,2.53,3.57,3.42.74.3,1.49.45,2.23.45.6,0,1.19-.15,1.79-.3,1.04,2.53,3.57,4.31,6.4,4.31,1.79,0,3.57-.74,4.91-2.08,1.04.59,3.42,1.78,5.81,1.78h.89c2.38-.3,3.42-1.19,3.87-1.93.15-.15.15-.3.3-.45.6.15,1.19.3,1.79.3,1.34,0,2.53-.45,3.72-1.34s2.08-2.08,2.23-3.27c.45.15.89.15,1.19.15,1.34,0,2.68-.45,3.87-1.19,2.38-1.64,2.83-3.57,2.83-4.91.45.15.89.15,1.34.15,1.19,0,2.38-.45,3.57-1.04,1.44-.85,2.38-2.35,2.53-4.01.15-1.19-.15-2.23-.74-3.27,4.02-1.78,13.1-5.05,23.97-7.43,0-.89-.15-1.64-.3-2.53-12.95,2.38-22.63,6.54-25.16,7.58h0ZM55.53,64.07c-2.53,0-4.62-1.93-4.76-4.46,0-.15,0-.74-.45-.74-.15,0-.3.15-.6.3-.6.45-1.34,1.04-2.23,1.04-.45,0-1.04-.15-1.49-.3-2.68-1.04-2.68-2.97-2.53-3.72,0-.15,0-.45-.15-.59l-.15-.15h-.15c-.15,0-.3,0-.45.15-.89.59-1.64.89-2.38.89-.45,0-.89-.15-1.34-.3-3.57-1.34-3.28-4.76-3.13-5.65,0-.15,0-.3-.15-.45l-.3-.15-.3.3c-.74.6-1.64,1.04-2.53,1.04-2.08,0-3.72-1.64-3.72-3.72s1.64-3.72,3.72-3.72c1.79,0,3.42,1.34,3.57,3.12l.15,1.04.6-.89c0-.15,1.49-2.38,4.32-2.38.45,0,1.04.15,1.64.3,2.23.59,2.53,2.68,2.53,3.42,0,.45.45.45.45.45.15,0,.3-.15.45-.15.45-.45,1.34-1.19,2.68-1.19.6,0,1.34.15,2.08.45,3.42,1.49,1.94,5.8,1.94,5.95-.3.74-.3,1.04,0,1.19h.3c.15,0,.3,0,.6-.15.45-.15,1.19-.45,1.79-.45,2.53,0,4.76,2.08,4.76,4.76s-2.08,4.76-4.76,4.76Z"/>
</svg>