<?xml version="1.0" encoding="UTF-8"?>
<svg id="Layer_1" xmlns="http://www.w3.org/2000/svg" xmlns:v="https://vecta.io/nano" version="1.1" viewBox="0 0 120 147.7">
  <!-- Generator: Adobe Illustrator 29.0.1, SVG Export Plug-In . SVG Version: 2.1.0 Build 192)  -->
  <defs>
    <style>
      .st0 {
        fill: #001c64;
      }

      .st1 {
        fill: #003087;
      }

      .st2 {
        fill: #0070e0;
      }
    </style>
  </defs>
  <path class="st0" d="M46.9,29.6c-2.1,0-3.9,1.5-4.2,3.6l-7,44.3-6.4,40.7h0s0,0,0,0l6.4-40.7c.3-2.1,2.1-3.6,4.2-3.6h20.5c20.6,0,38.1-15,41.3-35.4.2-1.5.4-3.1.4-4.6h0s0,0,0,0c-5.2-2.7-11.4-4.3-18.1-4.3h-37.1Z"/>
  <path class="st2" d="M102.1,33.9c0,1.5-.2,3-.4,4.6-3.2,20.4-20.7,35.4-41.3,35.4h-20.5c-2.1,0-3.9,1.5-4.2,3.6l-6.4,40.7-4,25.6c-.3,1.9,1,3.7,2.9,4,.2,0,.4,0,.5,0h22.2c2.1,0,3.9-1.5,4.2-3.6l5.9-37.1c.3-2.1,2.1-3.6,4.2-3.6h13.1c20.6,0,38.1-15,41.3-35.4,2.3-14.5-5-27.6-17.5-34.1h0Z"/>
  <path class="st1" d="M21.7,0c-2.1,0-3.9,1.5-4.2,3.6L0,114.2c-.3,1.9,1,3.7,2.9,4,.2,0,.4,0,.5,0h25.9l6.4-40.7,7-44.3c.3-2.1,2.1-3.6,4.2-3.6h37.1c6.7,0,12.9,1.6,18.1,4.3C102.5,15.3,87.2,0,66.1,0H21.7Z"/>
</svg>