<?xml version="1.0" encoding="UTF-8"?>
<svg id="Layer_1" data-name="Layer 1" xmlns="http://www.w3.org/2000/svg" viewBox="0 0 120 28.58">
  <defs>
    <style>
      .cls-1 {
        fill: #6d2877;
      }

      .cls-2 {
        fill: #179bd7;
      }

      .cls-3 {
        fill: #6a276f;
      }

      .cls-4 {
        fill: #d01972;
      }
    </style>
  </defs>
  <path class="cls-2" d="M3.91,24.98c.25,0,.45-.2.45-.45s-.2-.45-.45-.45-.45.2-.45.45.2.45.45.45"/>
  <path class="cls-3" d="M38.86,28.54c.25,0,.45-.2.45-.45s-.2-.46-.45-.46-.45.2-.45.46.2.45.45.45"/>
  <path class="cls-4" d="M17.48,25.79h0c0-.51-.18-.94-.5-1.22l-.02-.02h0s0,0,0,0c-.3-.26-.71-.39-1.19-.4,0,0,0,0-.01,0s0,0-.01,0h0s-.02,0-.03,0c0,0-.01,0-.03,0h0s0,0-.01,0h0s0,0,0,0c-.48,0-.89.14-1.19.4h0l-.03.02c-.32.29-.49.71-.5,1.22h0s0,0,0,0v2.61s.01.07.04.09c.03.02.06.04.1.04h.46s.07-.01.1-.04c.03-.02.04-.06.04-.09v-2.52c0-.37.1-.63.27-.8.17-.17.42-.26.76-.27.34,0,.6.1.76.27.17.17.26.43.27.8v2.52s.01.07.04.09c.03.02.06.04.1.04h.46s.07-.01.1-.04c.03-.02.04-.06.04-.09v-2.6Z"/>
  <path class="cls-4" d="M33.68,25.79h0c0-.51-.18-.94-.5-1.22l-.02-.02h0s0,0,0,0c-.3-.26-.71-.39-1.19-.4,0,0,0,0-.01,0s0,0-.01,0h0s-.02,0-.03,0c0,0-.01,0-.03,0h0s0,0-.01,0h0s0,0,0,0c-.48,0-.89.14-1.19.4h0l-.03.02c-.32.29-.49.71-.5,1.22h0s0,2.61,0,2.61c0,.03.01.07.04.09.03.02.06.04.1.04h.46s.07-.01.1-.04c.03-.02.04-.06.04-.09v-2.52c0-.37.1-.63.27-.8.16-.17.42-.26.76-.27.34,0,.6.1.76.27.17.17.26.43.27.8v2.52s.01.07.04.09c.03.02.06.04.1.04h.46s.07-.01.1-.04c.03-.02.04-.06.04-.09v-2.6Z"/>
  <path class="cls-4" d="M25.13,24.58s0,0,0,0c-.26-.24-.69-.39-1.18-.4,0,0-.02,0-.03,0-.4,0-.8.08-1.15.38v-.26h0v-1.32s-.01-.07-.04-.09c-.03-.02-.06-.04-.1-.04h-.46s-.07.01-.1.04c-.03.02-.04.06-.04.09v5.41s.01.07.04.09c.03.02.06.04.1.04h.46s.07-.01.1-.04c.03-.02.04-.06.04-.09v-.27c.31.34.74.46,1.15.46h.03c.49,0,.91-.15,1.18-.4.49-.47.61-1.18.61-1.85,0-.66-.11-1.29-.6-1.76M24.99,26.34h0v.02c0,.42-.05.82-.2,1.11-.16.28-.4.47-.89.47,0,0,0,0-.02,0h0c-.49,0-.74-.19-.9-.47-.16-.29-.2-.7-.2-1.12v-.02c0-.42.04-.75.2-1.04.16-.28.41-.47.9-.47h.02c.49,0,.74.19.9.47.16.29.2.62.2,1.04h0Z"/>
  <path class="cls-4" d="M13.42,25.59h0c0-.45-.15-.83-.46-1.08-.31-.26-.76-.38-1.33-.38h-.03c-.6,0-1.08.13-1.45.52h0s-.02.02-.02.02c-.03.03-.05.06-.08.09,0,0,0,0,0,0l-.04.04s-.03.06-.03.1c0,.04.02.07.05.09l.02.02s.02.02.03.03l.08.07.22.19s.06.04.1.04c.04,0,.07-.02.09-.04l.14-.17h0c.09-.09.18-.16.28-.21.15-.07.35-.1.63-.1h.01c.4,0,.65.08.79.21.14.12.21.31.22.6,0,0,0,0,0,.01v.27h-1.19c-.48,0-.88.11-1.17.34-.29.22-.45.56-.45.96v.02c0,.33.13.65.35.88.31.3.71.41,1.33.41h.32c.56,0,.97-.14,1.23-.42.26-.28.36-.68.36-1.19v-1.32h0ZM12.65,26.94c0,.35-.08.54-.18.63-.25.23-.55.26-.93.26h-.01c-.36,0-.6-.06-.73-.16-.13-.09-.19-.22-.2-.45h0c0-.23.07-.37.2-.47.13-.1.36-.17.7-.17h1.14v.36Z"/>
  <path class="cls-4" d="M29.61,25.6h0c0-.45-.15-.82-.46-1.08-.31-.26-.76-.38-1.33-.38h-.03c-.6,0-1.08.13-1.45.52h0s-.02.02-.02.02c-.03.03-.05.06-.08.09,0,0,0,0,0,0l-.04.04s-.03.06-.03.1c0,.04.02.07.05.09l.02.02s.02.02.03.03l.08.07.22.19s.06.04.1.04c.04,0,.07-.02.09-.04l.14-.17c.09-.09.18-.16.28-.21.15-.07.35-.1.63-.1h0s0,0,0,0c.4,0,.65.08.79.21.14.12.21.31.22.6,0,0,0,0,0,.01v.27h-1.19c-.48,0-.88.11-1.17.34-.29.22-.45.56-.45.96v.02c0,.33.13.65.35.88.31.3.71.41,1.33.41h.32c.56,0,.97-.14,1.23-.42.26-.28.36-.68.36-1.19v-1.32h0ZM26.8,27.23h0c0-.23.07-.37.2-.47.13-.1.36-.17.7-.17h1.14v.36c0,.35-.08.54-.18.63-.25.23-.55.26-.93.26h-.01c-.36,0-.6-.06-.73-.16-.13-.09-.19-.22-.2-.45"/>
  <path class="cls-4" d="M6.26,24.15h-.78v-.8s0-.39,0-.39c0-.07-.06-.13-.13-.13h-.47s-.07.01-.1.04c-.03.02-.04.06-.04.09v.71h0v3.73c0,.3.09.58.28.78.18.2.48.32.82.32h.23s.2,0,.2,0c.03,0,.07-.01.09-.04.02-.03.04-.06.04-.1v-.46s-.01-.07-.04-.1c-.02-.03-.06-.04-.09-.04h-.36c-.07,0-.13-.01-.18-.03-.03-.01-.05-.02-.07-.04-.02-.01-.03-.02-.05-.04-.07-.07-.11-.19-.11-.36v-2.4h.78s.07-.02.09-.04c.02-.03.04-.06.04-.1v-.46s-.01-.07-.04-.1c-.02-.03-.06-.04-.09-.04"/>
  <path class="cls-4" d="M9.64,24.7l-.04-.05s0-.01-.01-.02l-.03-.03-.04-.04-.03-.03h0c-.27-.28-.6-.4-.95-.4,0,0-.02,0-.03,0-.25,0-.55.11-.73.33l-.12.15v-.33s-.01-.07-.04-.09c-.03-.02-.06-.04-.1-.04h-.46s-.07.01-.1.04-.04.06-.04.09v4.11s.01.07.04.09c.03.02.06.04.1.04h.08s0,0,0,0h.29s0,0,0,0h.08s.07-.01.1-.04c.03-.02.04-.06.04-.09v-.07s0,0,0,0v-2.44s0,0,0,0v-.2c.01-.23.09-.43.2-.58.13-.16.31-.26.56-.26.13,0,.22.02.29.05.07.03.15.09.24.19l.02.02.1.11s.06.04.09.04c.04,0,.07-.01.1-.04l.34-.31s.04-.06.05-.1c0-.04,0-.07-.03-.1"/>
  <path class="cls-4" d="M21.17,26.28s0,0,0,0h0c-.27-.19-.61-.25-.97-.28l-.68-.06c-.28-.02-.46-.08-.56-.16-.09-.07-.14-.17-.14-.34h0s0,0,0,0h0c0-.2.08-.34.21-.44.14-.1.37-.17.7-.17h0c.41,0,.75.1,1.04.28h0s.17.12.17.12c.03.02.06.03.1.02.03,0,.07-.03.09-.06l.26-.37s.03-.07.02-.1c0-.02,0-.04-.02-.05,0-.02-.02-.03-.04-.05l-.03-.02c-.41-.29-.97-.45-1.59-.45-.49,0-.91.12-1.21.34-.3.22-.48.56-.48.94h0v.02c0,.34.12.64.37.84.25.21.61.32,1.05.35l.7.06c.26.02.42.08.51.16.08.07.14.17.14.34h0c0,.22-.09.37-.25.47-.17.11-.45.18-.84.18h0s0,0,0,0h0c-.51,0-.88-.12-1.16-.35l-.15-.13s-.06-.03-.1-.03c-.04,0-.07.02-.09.05l-.29.36s-.04.07-.03.1c0,.04.02.07.04.09l.14.12h0s0,0,0,0l.02.02h0c.43.31.97.46,1.63.46h.01c.54,0,1-.12,1.34-.35.33-.23.53-.58.53-.99v-.02c0-.41-.16-.72-.42-.9"/>
  <path class="cls-4" d="M38.02,28.34l-.57-.81-1.15-1.67.89-.95.52-.55.03-.04c.06-.06.03-.12,0-.15-.03-.02-.06-.04-.1-.04h-.6s-.08.03-.11.05c0,0,0,0,0,0l-2,2.13v-3.36s-.02-.07-.04-.09c-.03-.02-.06-.04-.1-.04h-.46s-.07.01-.1.04c-.03.02-.04.06-.04.09v5.42s.02.07.04.09c.03.02.06.04.1.04h.46s.07-.01.1-.04c.03-.02.04-.06.04-.09v-1.09l.87-.94.58.87h0l.82,1.23s.05.07.12.07h.6s.07-.01.1-.04c.03-.02.04-.09,0-.15"/>
  <path class="cls-4" d="M32.89,22.88h.08l.12.35.12-.35h.08v.42h-.05v-.29s0-.04,0-.06l-.12.35h-.06l-.12-.35h0v.06s0,.04,0,.05v.25h-.05v-.42Z"/>
  <path class="cls-4" d="M33.54,22.88h.19s.06,0,.08.01c.04.02.06.05.06.1,0,.02,0,.05-.01.06-.01.02-.03.03-.04.04.02,0,.03.02.04.03,0,.01.01.03.01.05v.06s0,.03,0,.04c0,.01,0,.02.02.02h0s-.07.01-.07.01c0,0,0,0,0-.01,0,0,0-.02,0-.03v-.07s-.01-.05-.03-.05c0,0-.03,0-.05,0h-.13v.18h-.06v-.42ZM33.72,23.07s.05,0,.06-.02c.01,0,.02-.03.02-.06s-.01-.05-.03-.06c-.01,0-.03,0-.05,0h-.14v.14h.13Z"/>
  <path class="cls-4" d="M33.42,23.29s-.03-.01-.03-.03.01-.03.03-.03.03.01.03.03-.01.03-.03.03"/>
  <path class="cls-4" d="M33.99,23.29s-.03-.01-.03-.03.01-.03.03-.03.03.01.03.03-.01.03-.03.03Z"/>
  <path class="cls-1" d="M47.76,5.62s-.02-.02-.03-.03c-.86-.79-2.23-1.28-3.83-1.28-.02,0-.05,0-.09,0-1.31,0-2.6.27-3.72,1.23h0s0-.84,0-.84h0V.43c0-.11-.05-.22-.13-.3-.08-.08-.2-.13-.32-.13h-1.49c-.12,0-.24.05-.32.13-.09.08-.13.19-.13.3v4.27h0v9.07h0v4.25c0,.11.05.22.13.3.09.08.2.13.32.13h1.49c.12,0,.24-.05.32-.13.09-.08.13-.19.13-.3v-.88c.99,1.11,2.41,1.49,3.72,1.49h.09c1.59,0,2.96-.5,3.82-1.29,1.6-1.52,1.97-3.84,1.97-6,0-2.15-.37-4.2-1.95-5.71M47.32,11.34v.03h0v.03c0,1.35-.15,2.67-.66,3.61-.5.91-1.32,1.51-2.89,1.54-.01,0-.03,0-.06,0h-.03c-1.59-.02-2.41-.62-2.92-1.54-.52-.95-.66-2.28-.66-3.64v-.08c0-1.35.14-2.43.66-3.38.51-.92,1.33-1.53,2.92-1.54h.06c1.59.01,2.41.62,2.92,1.54.51.94.66,2.02.66,3.37v.04Z"/>
  <path class="cls-1" d="M61.45,17.3c1.57-1.51,1.94-3.57,1.94-5.71,0-2.16-.37-4.48-1.97-6-.86-.79-2.23-1.28-3.82-1.29h-.09c-1.31,0-2.73.38-3.72,1.49v-.88c0-.11-.05-.22-.13-.3-.08-.08-.2-.13-.32-.13h-1.49c-.12,0-.24.05-.32.13-.08.08-.13.19-.13.3v4.25h0v9.07h0v4.27c0,.11.05.22.13.3.09.08.2.13.32.13h1.49c.12,0,.24-.05.32-.13.08-.08.13-.19.13-.3v-4.27h0v-.84h0c1.12.96,2.41,1.23,3.72,1.23.03,0,.06,0,.09,0,1.59,0,2.97-.49,3.83-1.28.01,0,.02-.02.03-.03M61.01,11.63c0,1.35-.14,2.43-.66,3.37-.51.92-1.33,1.53-2.92,1.54h-.06c-1.59-.01-2.41-.62-2.92-1.54-.52-.94-.66-2.03-.66-3.37v-.08c0-1.36.14-2.69.66-3.64.51-.92,1.33-1.52,2.92-1.54h.03s.05,0,.06,0c1.58.02,2.39.63,2.89,1.54.51.94.66,2.26.66,3.61v.03h0v.08Z"/>
  <path class="cls-1" d="M82.78,19.74c-.13.35-.37.93-.52,1.27,0,0-.28.62-.68,1.02-.37.37-.79.62-1.26.76-.47.14-.78.16-.78.16-.38.03-.93.05-1.22.05s-.54-.31-.54-.69v-1.01c0-.38.15-.69.34-.69s.65-.03,1.02-.07c0,0,.29-.03.55-.23.26-.2.39-.49.39-.49.16-.34.39-.91.52-1.27l.27-.78c.13-.36.12-.94,0-1.29l-4.16-11.37c-.13-.35.07-.64.45-.64h1.45c.38,0,.79.29.91.65l2.72,8.04c.12.36.32.36.44,0l2.66-8.04c.12-.36.52-.65.9-.65h1.48c.38,0,.58.29.45.64l-5.39,14.62Z"/>
  <path class="cls-1" d="M75.97,9.1h0c0-1.43-.47-2.65-1.46-3.46-1-.82-2.43-1.2-4.27-1.2h-.09c-1.94,0-3.47.42-4.64,1.66h0s-.07.08-.07.08c-.09.1-.17.2-.26.3,0,0,0,0,0,0l-.12.14c-.07.08-.11.2-.09.31.01.11.07.23.16.3l.07.06s.05.06.09.09l.26.22.7.6c.09.08.21.12.32.11.11,0,.22-.06.29-.14l.45-.53h0c.28-.3.57-.52.91-.67.49-.21,1.12-.31,2.02-.32h.01s.03,0,.03,0c1.29,0,2.09.27,2.55.67.46.4.69.99.69,1.92,0,0,0,.02,0,.04v.88h-3.82c-1.54,0-2.83.35-3.76,1.08-.92.71-1.44,1.8-1.44,3.08v.05c0,1.06.4,2.1,1.13,2.82.98.96,2.28,1.31,4.25,1.31h1.02c1.8,0,3.1-.44,3.93-1.34.83-.9,1.17-2.2,1.17-3.81v-4.25ZM66.94,14.34v-.03c0-.72.23-1.17.64-1.49.43-.33,1.16-.54,2.25-.54h3.67v1.14c0,1.12-.25,1.74-.58,2.03-.79.73-1.78.84-2.98.85h-.03c-1.15,0-1.91-.2-2.34-.51-.41-.29-.62-.72-.63-1.44"/>
  <path class="cls-1" d="M22.35,4.5c-.39,0-.81.31-.91.69l-2.6,9.16c-.11.38-.3.38-.42,0l-3.02-9.18c-.12-.37-.55-.68-.94-.68h-.54c-.39,0-.82.31-.94.68l-3,9.18c-.12.37-.31.37-.42,0l-2.62-9.16c-.11-.38-.52-.69-.91-.69h-1.1c-.39,0-.62.31-.5.68l4.01,12.65c.12.38.54.68.93.68h.76c.35,0,.73-.27.84-.61l3-8.95c.13-.37.33-.37.46,0l3,8.87c.13.37.55.68.95.68h.73c.37,0,.75-.29.86-.63l4-12.7c.12-.38-.11-.68-.5-.68h-1.1Z"/>
  <path class="cls-1" d="M26.94,10.26c.05-.87.11-1.26.38-1.92.49-1.16,1.61-1.88,2.93-1.88s2.44.72,2.93,1.88c.27.66.33,1.05.38,1.92h-6.62ZM36.01,11.06c0-4.16-2.21-6.74-5.76-6.74s-5.76,2.66-5.76,7.13,2.17,7.13,6.11,7.13c2.45,0,3.76-.82,5.09-2.15l.18-.18-1.69-1.49-.15.15c-1.08,1.08-1.96,1.46-3.36,1.46-2.33,0-3.66-1.48-3.73-4.18h9.08v-1.14Z"/>
  <path class="cls-4" d="M1.42,7.4c.79,0,1.43-.64,1.43-1.44s-.64-1.44-1.43-1.44-1.42.64-1.42,1.44.64,1.44,1.42,1.44"/>
  <path class="cls-4" d="M88.1,18.51c.79,0,1.43-.64,1.43-1.43s-.64-1.44-1.43-1.44-1.42.64-1.42,1.44.64,1.43,1.42,1.43"/>
  <path class="cls-4" d="M96.18,6.04h-1.58v2.37h1.58c.77,0,1.25-.47,1.25-1.18s-.49-1.19-1.25-1.19M96.27,9.93h-1.66v3.26h-1.69V4.54h3.35c1.79,0,2.85,1.23,2.85,2.7s-1.07,2.7-2.85,2.7"/>
  <polygon class="cls-4" points="100.1 13.19 100.1 4.54 101.79 4.54 101.79 11.68 105.71 11.68 105.71 13.19 100.1 13.19"/>
  <path class="cls-4" d="M109.33,13.26c-1.77,0-3.18-1.2-3.18-3.04v-5.68h1.69v5.62c0,1,.58,1.59,1.49,1.59s1.51-.6,1.51-1.59v-5.62h1.68v5.68c0,1.83-1.41,3.04-3.18,3.04"/>
  <path class="cls-4" d="M116.8,13.27c-1.31,0-2.3-.28-3.15-1.14l1.09-1.09c.55.55,1.29.73,2.09.73.99,0,1.53-.38,1.53-1.07,0-.3-.09-.56-.27-.73-.17-.16-.36-.24-.76-.3l-1.04-.15c-.74-.11-1.29-.34-1.67-.72-.41-.41-.62-.97-.62-1.7,0-1.54,1.14-2.62,3.01-2.62,1.19,0,2.05.29,2.79,1.01l-1.07,1.06c-.55-.52-1.2-.59-1.77-.59-.9,0-1.33.5-1.33,1.09,0,.22.07.45.25.62.17.16.45.29.8.34l1.02.15c.79.11,1.29.33,1.65.67.46.44.67,1.07.67,1.83,0,1.67-1.4,2.62-3.2,2.62"/>
</svg>